<svg width="20" height="20" viewBox="0 0 20 20" fill="none" xmlns="http://www.w3.org/2000/svg">
<path id="Vector" d="M10 5.93343C7.73828 5.93343 5.89844 7.77292 5.89844 10.0342C5.89844 12.2955 7.73828 14.135 10 14.135C12.2617 14.135 14.1016 12.2955 14.1016 10.0342C14.1016 7.77292 12.2617 5.93343 10 5.93343ZM10 5.93343C7.73828 5.93343 5.89844 7.77292 5.89844 10.0342C5.89844 12.2955 7.73828 14.135 10 14.135C12.2617 14.135 14.1016 12.2955 14.1016 10.0342C14.1016 7.77292 12.2617 5.93343 10 5.93343ZM17.0703 -0.00292969H2.92969C1.3125 -0.00292969 0 1.30932 0 2.9262V17.0641C0 18.681 1.3125 19.9932 2.92969 19.9932H17.0703C18.6875 19.9932 20 18.681 20 17.0641V2.9262C20 1.30932 18.6875 -0.00292969 17.0703 -0.00292969ZM10 15.3066C7.09379 15.3066 4.72656 12.9399 4.72656 10.0342C4.72656 7.12848 7.09379 4.76178 10 4.76178C12.9062 4.76178 15.2734 7.12848 15.2734 10.0342C15.2734 12.9399 12.9062 15.3066 10 15.3066ZM16.4453 4.76178C15.8008 4.76178 15.2734 4.23454 15.2734 3.59013C15.2734 2.94572 15.8008 2.41848 16.4453 2.41848C17.0898 2.41848 17.6172 2.94572 17.6172 3.59013C17.6172 4.23454 17.0898 4.76178 16.4453 4.76178ZM10 5.93343C7.73828 5.93343 5.89844 7.77292 5.89844 10.0342C5.89844 12.2955 7.73828 14.135 10 14.135C12.2617 14.135 14.1016 12.2955 14.1016 10.0342C14.1016 7.77292 12.2617 5.93343 10 5.93343ZM10 5.93343C7.73828 5.93343 5.89844 7.77292 5.89844 10.0342C5.89844 12.2955 7.73828 14.135 10 14.135C12.2617 14.135 14.1016 12.2955 14.1016 10.0342C14.1016 7.77292 12.2617 5.93343 10 5.93343ZM10 5.93343C7.73828 5.93343 5.89844 7.77292 5.89844 10.0342C5.89844 12.2955 7.73828 14.135 10 14.135C12.2617 14.135 14.1016 12.2955 14.1016 10.0342C14.1016 7.77292 12.2617 5.93343 10 5.93343Z" fill="#0EB192"/>
</svg>
