<svg width="12" height="15" viewBox="0 0 12 15" fill="none" xmlns="http://www.w3.org/2000/svg">
<path d="M5.37163 0.121204C4.42007 0.23876 3.53687 0.60783 2.7603 1.21474C2.48687 1.42799 2.01109 1.91461 1.80874 2.188C0.821632 3.52758 0.520851 5.13235 0.93921 6.84648C1.38491 8.65902 2.63179 10.7285 4.50484 12.7625C5.01616 13.3175 5.7189 13.9955 5.82827 14.042C5.94312 14.0884 6.0607 14.0884 6.18374 14.0365C6.29859 13.9873 7.32671 12.9676 7.78062 12.4509C9.50054 10.4962 10.6189 8.59887 11.0455 6.91209C11.4857 5.17883 11.1849 3.52211 10.1869 2.18526C9.9982 1.93101 9.54976 1.46352 9.29546 1.25849C8.19624 0.361783 6.77437 -0.0510283 5.37163 0.121204ZM6.30132 2.43131C6.64038 2.46958 6.92749 2.5516 7.21734 2.68829C7.86812 2.99448 8.3357 3.46197 8.63921 4.10716C9.16421 5.21984 8.91812 6.55122 8.02945 7.41238C7.14898 8.26261 5.86929 8.48405 4.78101 7.97009C4.45015 7.81152 4.22593 7.65843 3.97163 7.41238C3.08296 6.55122 2.83687 5.21984 3.36187 4.10716C3.84312 3.09017 4.83296 2.44224 5.95952 2.4067C6.01968 2.4067 6.1728 2.41764 6.30132 2.43131Z" fill="#4D4238"/>
</svg>
