<svg width="14" height="15" viewBox="0 0 14 15" fill="none" xmlns="http://www.w3.org/2000/svg">
<path d="M12.8947 9.28108C12.0311 9.28108 11.1853 9.14626 10.3836 8.88177C9.99231 8.74696 9.548 8.85083 9.29085 9.11311L7.70148 10.3132C5.87779 9.34002 4.71064 8.17381 3.75054 6.36374L4.91843 4.81225C5.21243 4.5183 5.31781 4.08806 5.19181 3.68509C4.92506 2.8784 4.78949 2.03193 4.78949 1.16999C4.78949 0.56073 4.29361 0.0649414 3.68423 0.0649414H1.10526C0.495884 0.0649414 0 0.56073 0 1.16999C0 8.27841 5.78495 14.0623 12.8947 14.0623C13.5041 14.0623 14 13.5665 14 12.9572V10.3861C14 9.77687 13.5041 9.28108 12.8947 9.28108Z" fill="#4D4238"/>
</svg>
