<svg width="25" height="24" viewBox="0 0 25 24" fill="none" xmlns="http://www.w3.org/2000/svg">
<path id="Vector" d="M23.6838 22.0846L18.7983 17.1946C20.3162 15.3745 21.2292 13.0485 21.2292 10.5081C21.2292 4.71242 16.4719 0 10.6201 0C4.76832 0 0 4.71792 0 10.5136C0 16.3093 4.75732 21.0217 10.6091 21.0217C13.095 21.0217 15.3829 20.1694 17.1979 18.7452L22.1108 23.6572C22.5618 24.1081 23.2328 24.1081 23.6838 23.6572C24.1347 23.2063 24.1347 22.5355 23.6838 22.0846ZM2.25492 10.5136C2.25492 5.96063 6.00577 2.25998 10.6091 2.25998C15.2124 2.25998 18.9633 5.96063 18.9633 10.5136C18.9633 15.0665 15.2124 18.7672 10.6091 18.7672C6.00577 18.7672 2.25492 15.061 2.25492 10.5136Z" fill="#232323"/>
</svg>
