<?xml version="1.0" standalone="no"?>
<!DOCTYPE svg PUBLIC "-//W3C//DTD SVG 20010904//EN"
 "http://www.w3.org/TR/2001/REC-SVG-20010904/DTD/svg10.dtd">
<svg version="1.0" xmlns="http://www.w3.org/2000/svg"
 width="256.000000pt" height="256.000000pt" viewBox="0 0 256.000000 256.000000"
 preserveAspectRatio="xMidYMid meet">

<g transform="translate(0.000000,256.000000) scale(0.100000,-0.100000)"
fill="#000000" stroke="none">
<path d="M1138 2081 c-147 -48 -261 -166 -303 -315 -13 -43 -16 -84 -13 -150
3 -80 8 -101 41 -169 115 -244 403 -338 639 -210 64 35 159 137 192 206 108
229 11 499 -220 613 -72 36 -84 39 -178 41 -78 2 -114 -1 -158 -16z m282 -132
c95 -45 159 -123 185 -227 39 -152 -34 -310 -176 -381 -79 -39 -148 -47 -230
-27 -151 39 -247 152 -257 301 -2 39 1 88 7 110 28 104 121 205 220 239 70 24
182 17 251 -15z"/>
<path d="M881 1084 c-216 -46 -392 -213 -446 -421 -20 -77 -20 -167 1 -187 14
-14 104 -16 844 -16 740 0 830 2 844 16 21 20 21 110 1 187 -55 211 -231 376
-448 421 -103 22 -698 22 -796 0z m749 -115 c182 -29 341 -175 379 -346 l9
-43 -738 0 -738 0 9 43 c37 167 197 317 369 346 77 12 631 13 710 0z"/>
</g>
</svg>
